<svg width="1052" height="254" viewBox="0 0 1052 254" fill="none" xmlns="http://www.w3.org/2000/svg">
<path d="M32 86.432C32 72.992 36.536 62.66 45.608 55.436C54.68 48.044 67.7 44.348 84.668 44.348C101.804 44.348 114.572 46.112 122.972 49.64V85.928C112.724 81.56 101.048 79.376 87.944 79.376C81.224 79.376 76.688 80.468 74.336 82.652C71.984 84.668 70.808 87.608 70.808 91.472V95.252C70.808 99.956 71.564 103.484 73.076 105.836C74.756 108.02 78.284 110.54 83.66 113.396L112.388 129.524C126.164 137.084 133.052 148.424 133.052 163.544V179.168C133.052 192.776 128.012 203.276 117.932 210.668C107.852 217.892 93.656 221.504 75.344 221.504C57.2 221.504 43.508 219.572 34.268 215.708V179.168C45.692 184.04 58.628 186.476 73.076 186.476C87.524 186.476 94.748 182.36 94.748 174.128V170.348C94.748 166.484 93.908 163.628 92.228 161.78C90.716 159.764 87.776 157.58 83.408 155.228L56.444 140.612C40.148 131.54 32 118.772 32 102.308V86.432Z" fill="white"/>
<path d="M146.522 177.908V109.616C146.522 96.848 150.47 86.936 158.366 79.88C166.262 72.656 178.19 69.044 194.15 69.044C224.894 69.044 240.266 82.568 240.266 109.616V160.772H183.062V174.884C183.062 179.924 184.406 183.536 187.094 185.72C189.95 187.736 196.082 188.744 205.49 188.744C215.066 188.744 225.482 187.064 236.738 183.704V216.968C224.978 220.16 212.378 221.756 198.938 221.756C163.994 221.756 146.522 207.14 146.522 177.908ZM183.062 131.792H205.238V110.12C205.238 103.736 201.542 100.544 194.15 100.544C186.758 100.544 183.062 103.736 183.062 110.12V131.792Z" fill="white"/>
<path d="M293.6 78.116C302.504 73.244 311.744 70.808 321.32 70.808C330.896 70.808 338.54 73.496 344.252 78.872C350.132 84.08 353.072 91.976 353.072 102.56V220.244H314.516V111.884C314.516 107.852 312.332 105.836 307.964 105.836C303.596 105.836 299.564 106.928 295.868 109.112V220.244H257.816V71.564H293.6V78.116Z" fill="white"/>
<path d="M430.156 105.332H421.84C413.944 105.332 409.996 109.532 409.996 117.932V180.176C409.996 184.544 412.516 186.728 417.556 186.728C422.596 186.728 426.796 185.72 430.156 183.704V105.332ZM429.904 32H468.208V220.244H431.164V209.66C425.116 217.388 416.464 221.252 405.208 221.252C394.12 221.252 385.804 218.228 380.26 212.18C374.716 206.132 371.944 197.732 371.944 186.98V116.672C371.944 102.56 375.808 91.556 383.536 83.66C391.264 75.596 403.024 71.564 418.816 71.564H429.904V32Z" fill="white"/>
<path d="M488.346 177.908V109.616C488.346 96.848 492.294 86.936 500.19 79.88C508.086 72.656 520.014 69.044 535.974 69.044C566.718 69.044 582.09 82.568 582.09 109.616V160.772H524.886V174.884C524.886 179.924 526.23 183.536 528.918 185.72C531.774 187.736 537.906 188.744 547.314 188.744C556.89 188.744 567.306 187.064 578.562 183.704V216.968C566.802 220.16 554.202 221.756 540.762 221.756C505.818 221.756 488.346 207.14 488.346 177.908ZM524.886 131.792H547.062V110.12C547.062 103.736 543.366 100.544 535.974 100.544C528.582 100.544 524.886 103.736 524.886 110.12V131.792Z" fill="white"/>
<path d="M663.9 70.808H668.184V105.836H662.388C652.98 105.836 644.748 107.516 637.692 110.876V220.244H599.64V71.564H635.424V81.644C643.992 76.436 649.956 73.328 653.316 72.32C656.844 71.312 660.372 70.808 663.9 70.808Z" fill="white"/>
<path d="M783.415 85.676V102.056C783.415 118.352 777.451 128.348 765.523 132.044C778.459 135.068 784.927 145.148 784.927 162.284V180.176C784.927 206.888 770.647 220.244 742.087 220.244H680.851V45.608H740.575C769.135 45.608 783.415 58.964 783.415 85.676ZM734.275 77.36H718.651V115.412H734.275C742.171 115.412 746.119 111.8 746.119 104.576V88.196C746.119 80.972 742.171 77.36 734.275 77.36ZM747.631 177.656V159.764C747.631 152.54 743.683 148.928 735.787 148.928H718.651V188.492H735.787C743.683 188.492 747.631 184.88 747.631 177.656Z" fill="#4ADE80"/>
<path d="M870.396 90.212C870.396 81.812 865.356 77.612 855.276 77.612C845.364 77.612 840.408 81.812 840.408 90.212V175.64C840.408 184.04 845.364 188.24 855.276 188.24C865.356 188.24 870.396 184.04 870.396 175.64V90.212ZM802.608 88.196C802.608 74.42 807.06 63.5 815.964 55.436C824.868 47.204 837.972 43.088 855.276 43.088C872.58 43.088 885.684 47.204 894.588 55.436C903.66 63.5 908.196 74.42 908.196 88.196V177.656C908.196 191.432 903.66 202.436 894.588 210.668C885.684 218.732 872.58 222.764 855.276 222.764C837.972 222.764 824.868 218.732 815.964 210.668C807.06 202.436 802.608 191.432 802.608 177.656V88.196Z" fill="#4ADE80"/>
<path d="M1019.65 45.608V78.368H988.145V220.244H949.841V78.368H918.341V45.608H1019.65Z" fill="#4ADE80"/>
</svg>
