<svg width="1443" height="310" viewBox="0 0 1443 310" fill="none" xmlns="http://www.w3.org/2000/svg">
<path d="M208.146 74.318H198.711V52.8745H208.146V74.318Z" fill="white"/>
<path d="M219.297 43.4393C219.297 51.9659 212.384 58.8786 203.857 58.8786C195.331 58.8786 188.418 51.9659 188.418 43.4393C188.418 34.9127 195.331 28 203.857 28C212.384 28 219.297 34.9127 219.297 43.4393Z" fill="white"/>
<path d="M203.614 65.2153C135.19 67.1427 34 64.2516 34 179.897C34 285.906 144.828 283.015 203.614 282.554C262.401 283.015 373.228 285.906 373.228 179.897C373.228 64.2516 272.038 67.1427 203.614 65.2153Z" fill="white"/>
<path d="M363.622 168.3L96.7422 169.517L363.622 262.397V168.3Z" fill="white"/>
<path d="M363.622 168.3L96.7422 169.517L363.622 262.397V168.3Z" fill="#659E56"/>
<path d="M203.616 73.6836C138.067 75.4609 41.127 72.7953 41.127 179.433C41.127 277.185 147.299 274.519 203.616 274.094C259.933 274.519 366.104 277.185 366.104 179.433C366.104 72.7953 269.165 75.4609 203.616 73.6836Z" fill="#659E56"/>
<path d="M166.342 169.39C166.342 191.339 149.005 209.132 127.619 209.132C106.233 209.132 88.8965 191.339 88.8965 169.39C88.8965 147.441 106.233 129.648 127.619 129.648C149.005 129.648 166.342 147.441 166.342 169.39Z" fill="#140F1A"/>
<path d="M319.195 169.39C319.195 191.339 301.859 209.132 280.473 209.132C259.087 209.132 241.75 191.339 241.75 169.39C241.75 147.441 259.087 129.648 280.473 129.648C301.859 129.648 319.195 147.441 319.195 169.39Z" fill="#140F1A"/>
<path d="M219.333 203.018C213.219 210.151 203.028 210.813 203.028 210.813C203.028 210.813 192.837 210.151 186.723 203.018C183.91 199.736 178.571 205.056 180.609 209.132C182.647 213.208 190.8 219.322 203.028 219.322C215.256 219.322 223.409 213.208 225.447 209.132C227.485 205.056 222.146 199.736 219.333 203.018Z" fill="#140F1A"/>
<path d="M365.621 179.433C365.621 152.848 359.581 133.121 349.536 118.444C339.49 103.768 325.41 94.1001 309.262 87.6836C276.936 74.839 236.426 75.0543 203.614 74.1649C170.803 75.0542 130.292 74.8391 97.9673 87.6836C81.8193 94.1001 67.7402 103.768 57.6946 118.444C47.649 133.121 41.6078 152.848 41.6078 179.433C41.6078 203.778 48.2164 221.829 58.9712 235.221C69.7308 248.618 84.6733 257.393 101.408 263.123C134.897 274.59 175.43 273.824 203.612 273.611H203.618C231.8 273.824 272.332 274.59 305.822 263.123C322.556 257.393 337.499 248.618 348.259 235.221C359.014 221.829 365.621 203.778 365.621 179.433ZM366.586 179.433C366.586 203.964 359.923 222.237 349.01 235.825C338.103 249.406 322.982 258.266 306.134 264.035C272.46 275.566 231.751 274.788 203.615 274.575C175.48 274.788 134.77 275.566 101.096 264.035C84.2479 258.266 69.1272 249.406 58.2198 235.825C47.3075 222.237 40.6446 203.964 40.6445 179.433C40.6445 152.7 46.7208 132.771 56.8997 117.9C67.0786 103.029 81.3311 93.2563 97.6113 86.7873C130.139 73.8625 170.866 74.0892 203.602 73.2017H203.628C236.363 74.0892 277.091 73.8626 309.618 86.7873C325.898 93.2563 340.152 103.028 350.33 117.9C360.509 132.771 366.586 152.7 366.586 179.433Z" fill="white"/>
<path d="M421.229 114.378C421.229 100.938 425.765 90.6063 434.837 83.3823C443.909 75.9903 456.929 72.2943 473.897 72.2943C491.033 72.2943 503.801 74.0583 512.201 77.5863V113.874C501.953 109.506 490.277 107.322 477.173 107.322C470.453 107.322 465.917 108.414 463.565 110.598C461.213 112.614 460.037 115.554 460.037 119.418V123.198C460.037 127.902 460.793 131.43 462.305 133.782C463.985 135.966 467.513 138.486 472.889 141.342L501.617 157.47C515.393 165.03 522.281 176.37 522.281 191.49V207.114C522.281 220.722 517.241 231.222 507.161 238.614C497.081 245.838 482.885 249.45 464.573 249.45C446.429 249.45 432.737 247.518 423.497 243.654V207.114C434.921 211.986 447.857 214.422 462.305 214.422C476.753 214.422 483.977 210.306 483.977 202.074V198.294C483.977 194.43 483.137 191.574 481.457 189.726C479.945 187.71 477.005 185.526 472.637 183.174L445.673 168.558C429.377 159.486 421.229 146.718 421.229 130.254V114.378Z" fill="white"/>
<path d="M535.751 205.854V137.562C535.751 124.794 539.699 114.882 547.595 107.826C555.491 100.602 567.419 96.9903 583.379 96.9903C614.123 96.9903 629.495 110.514 629.495 137.562V188.718H572.291V202.83C572.291 207.87 573.635 211.482 576.323 213.666C579.179 215.682 585.311 216.69 594.719 216.69C604.295 216.69 614.711 215.01 625.967 211.65V244.914C614.207 248.106 601.607 249.702 588.167 249.702C553.223 249.702 535.751 235.086 535.751 205.854ZM572.291 159.738H594.467V138.066C594.467 131.682 590.771 128.49 583.379 128.49C575.987 128.49 572.291 131.682 572.291 138.066V159.738Z" fill="white"/>
<path d="M682.828 106.062C691.732 101.19 700.972 98.7543 710.548 98.7543C720.124 98.7543 727.768 101.442 733.48 106.818C739.36 112.026 742.3 119.922 742.3 130.506V248.19H703.744V139.83C703.744 135.798 701.56 133.782 697.192 133.782C692.824 133.782 688.792 134.874 685.096 137.058V248.19H647.044V99.5103H682.828V106.062Z" fill="white"/>
<path d="M819.385 133.278H811.069C803.173 133.278 799.225 137.478 799.225 145.878V208.122C799.225 212.49 801.745 214.674 806.785 214.674C811.825 214.674 816.025 213.666 819.385 211.65V133.278ZM819.133 59.9463H857.437V248.19H820.393V237.606C814.345 245.334 805.693 249.198 794.437 249.198C783.349 249.198 775.033 246.174 769.489 240.126C763.945 234.078 761.173 225.678 761.173 214.926V144.618C761.173 130.506 765.037 119.502 772.765 111.606C780.493 103.542 792.253 99.5103 808.045 99.5103H819.133V59.9463Z" fill="white"/>
<path d="M877.575 205.854V137.562C877.575 124.794 881.523 114.882 889.419 107.826C897.315 100.602 909.243 96.9903 925.203 96.9903C955.947 96.9903 971.319 110.514 971.319 137.562V188.718H914.115V202.83C914.115 207.87 915.459 211.482 918.147 213.666C921.003 215.682 927.135 216.69 936.543 216.69C946.119 216.69 956.535 215.01 967.791 211.65V244.914C956.031 248.106 943.431 249.702 929.991 249.702C895.047 249.702 877.575 235.086 877.575 205.854ZM914.115 159.738H936.291V138.066C936.291 131.682 932.595 128.49 925.203 128.49C917.811 128.49 914.115 131.682 914.115 138.066V159.738Z" fill="white"/>
<path d="M1053.13 98.7543H1057.41V133.782H1051.62C1042.21 133.782 1033.98 135.462 1026.92 138.822V248.19H988.868V99.5103H1024.65V109.59C1033.22 104.382 1039.18 101.274 1042.54 100.266C1046.07 99.2583 1049.6 98.7543 1053.13 98.7543Z" fill="white"/>
<path d="M1172.64 113.622V130.002C1172.64 146.298 1166.68 156.294 1154.75 159.99C1167.69 163.014 1174.16 173.094 1174.16 190.23V208.122C1174.16 234.834 1159.88 248.19 1131.32 248.19H1070.08V73.5543H1129.8C1158.36 73.5543 1172.64 86.9103 1172.64 113.622ZM1123.5 105.306H1107.88V143.358H1123.5C1131.4 143.358 1135.35 139.746 1135.35 132.522V116.142C1135.35 108.918 1131.4 105.306 1123.5 105.306ZM1136.86 205.602V187.71C1136.86 180.486 1132.91 176.874 1125.02 176.874H1107.88V216.438H1125.02C1132.91 216.438 1136.86 212.826 1136.86 205.602Z" fill="#659E56"/>
<path d="M1259.62 118.158C1259.62 109.758 1254.58 105.558 1244.5 105.558C1234.59 105.558 1229.64 109.758 1229.64 118.158V203.586C1229.64 211.986 1234.59 216.186 1244.5 216.186C1254.58 216.186 1259.62 211.986 1259.62 203.586V118.158ZM1191.84 116.142C1191.84 102.366 1196.29 91.4463 1205.19 83.3823C1214.1 75.1503 1227.2 71.0343 1244.5 71.0343C1261.81 71.0343 1274.91 75.1503 1283.82 83.3823C1292.89 91.4463 1297.42 102.366 1297.42 116.142V205.602C1297.42 219.378 1292.89 230.382 1283.82 238.614C1274.91 246.678 1261.81 250.71 1244.5 250.71C1227.2 250.71 1214.1 246.678 1205.19 238.614C1196.29 230.382 1191.84 219.378 1191.84 205.602V116.142Z" fill="#659E56"/>
<path d="M1408.87 73.5543V106.314H1377.37V248.19H1339.07V106.314H1307.57V73.5543H1408.87Z" fill="#659E56"/>
</svg>
